<svg xmlns="http://www.w3.org/2000/svg" width="221.502" height="153.391" viewBox="0 0 221.502 153.391"><defs><style>.a{fill:#fff;}</style></defs><g transform="translate(0 69.508) rotate(-20)"><ellipse cx="29.596" cy="98.186" rx="29.596" ry="98.186" transform="matrix(0.157, -0.988, 0.988, 0.157, 0, 58.459)"/><path class="a" d="M6.757-20.3H2.146V0H6.757V-4.988L9.309-8.294,14.094,0h5.22L12.035-11.948l6.38-8.352h-5.1L6.757-11.136ZM30.363-8.12a7.99,7.99,0,0,0-4.2-.986c-3.016,0-5.568,1.479-5.568,4.582S23.142.348,26.158.348A6.928,6.928,0,0,0,31.03-1.508,3.618,3.618,0,0,0,34.452.319,6.276,6.276,0,0,0,36.076.087V-2.581a6.07,6.07,0,0,1-.7.029c-.435,0-.725-.232-.725-.812V-8.9c0-3.886-1.8-6.467-6.757-6.467-4.147,0-5.742,2.03-6.322,4.727h4.263a1.829,1.829,0,0,1,2.03-1.276c1.595,0,2.494.986,2.494,2.784Zm0,4.176a4.281,4.281,0,0,1-3.016,1.131c-1.45,0-2.291-.638-2.291-1.711s.841-1.711,2.291-1.711a5.529,5.529,0,0,1,3.016.7Zm7.105-3.567c0,4.582,2.929,7.859,7.6,7.859a6.754,6.754,0,0,0,6.293-4.031l-2.32-1.566A4.62,4.62,0,0,1,45.356-3.1c-2.233,0-3.422-1.711-3.422-4.408s1.189-4.408,2.987-4.408a2.592,2.592,0,0,1,2.465,2.61H51.62c-.174-3.045-2.465-6.061-6.989-6.061C40.4-15.37,37.468-12.093,37.468-7.511ZM65.54-4.785A5.055,5.055,0,0,1,61.683-3.1a3.69,3.69,0,0,1-3.8-2.987H68.469a10.491,10.491,0,0,0,.058-1.363c0-4.669-3.016-7.917-7.482-7.917-4.524,0-7.54,3.277-7.54,7.859A7.559,7.559,0,0,0,61.393.348a7.094,7.094,0,0,0,6.293-3.6Zm-4.5-7.134a2.984,2.984,0,0,1,3.132,2.842H57.855A3.014,3.014,0,0,1,61.045-11.919ZM81.2-15.312a8.839,8.839,0,0,0-.928-.058,5.377,5.377,0,0,0-4.7,2.494l-.58-2.146H71.456V0h4.408V-9.744a5.019,5.019,0,0,1,4.205-2.146c.406,0,.783.029,1.131.058ZM92.394-8.12a7.99,7.99,0,0,0-4.205-.986c-3.016,0-5.568,1.479-5.568,4.582S85.173.348,88.189.348a6.928,6.928,0,0,0,4.872-1.856A3.618,3.618,0,0,0,96.483.319,6.276,6.276,0,0,0,98.107.087V-2.581a6.07,6.07,0,0,1-.7.029c-.435,0-.725-.232-.725-.812V-8.9c0-3.886-1.8-6.467-6.757-6.467-4.147,0-5.742,2.03-6.322,4.727H87.87a1.829,1.829,0,0,1,2.03-1.276c1.6,0,2.494.986,2.494,2.784Zm0,4.176a4.281,4.281,0,0,1-3.016,1.131c-1.45,0-2.291-.638-2.291-1.711s.841-1.711,2.291-1.711a5.529,5.529,0,0,1,3.016.7Z" transform="matrix(0.985, 0.172, -0.172, 0.985, 48.866, 42.947)"/></g></svg>